<?xml version="1.0" standalone="no"?>
<!DOCTYPE svg PUBLIC "-//W3C//DTD SVG 20010904//EN"
 "http://www.w3.org/TR/2001/REC-SVG-20010904/DTD/svg10.dtd">
<svg version="1.0" xmlns="http://www.w3.org/2000/svg"
 width="260.000000pt" height="260.000000pt" viewBox="0 0 260.000000 260.000000"
 preserveAspectRatio="xMidYMid meet">
<metadata>
Created by potrace 1.11, written by Peter Selinger 2001-2013
</metadata>
<g transform="translate(0.000000,260.000000) scale(0.100000,-0.100000)"
fill="#000000" stroke="none">
<path d="M819 2384 c-1 -2 -2 -7 -3 -11 -3 -14 -522 -1589 -533 -1620 -4 -10
29 -13 146 -13 l150 0 31 103 c18 56 46 149 64 207 l32 105 214 0 213 0 58
-165 c31 -91 64 -183 72 -205 l14 -40 151 -3 c84 -1 152 0 152 2 0 3 -24 72
-54 153 -29 81 -81 227 -116 323 -34 96 -65 184 -70 195 -5 11 -46 124 -90
250 -45 127 -86 241 -92 255 -5 14 -43 117 -83 230 -40 113 -76 213 -80 223
-6 15 -19 18 -91 16 -46 -1 -85 -3 -85 -5z m171 -739 c39 -126 76 -242 80
-257 l9 -28 -166 0 c-153 0 -165 1 -158 18 4 9 39 128 78 264 40 136 75 244
78 240 4 -4 39 -110 79 -237z"/>
<path d="M1390 1740 c0 -107 2 -120 18 -121 9 -1 77 -1 150 -1 l133 0 -3 -497
c-3 -486 -4 -497 -26 -552 -27 -68 -64 -105 -117 -116 -107 -23 -194 30 -240
145 -10 23 -22 42 -29 42 -6 0 -32 -26 -58 -58 -25 -31 -56 -68 -68 -82 -12
-14 -30 -35 -41 -48 -10 -12 -19 -27 -19 -32 0 -16 101 -114 148 -144 114 -71
258 -97 385 -69 199 44 332 215 354 453 3 36 6 265 7 510 l1 445 113 1 c62 0
116 4 120 8 4 4 7 59 8 122 l1 114 -419 0 -418 0 0 -120z"/>
</g>
</svg>
